<?xml version="1.0" standalone="no"?>
<!DOCTYPE svg PUBLIC "-//W3C//DTD SVG 20010904//EN"
 "http://www.w3.org/TR/2001/REC-SVG-20010904/DTD/svg10.dtd">
<svg version="1.0" xmlns="http://www.w3.org/2000/svg"
 width="502.000000pt" height="497.000000pt" viewBox="0 0 502.000000 497.000000"
 preserveAspectRatio="xMidYMid meet">

<g transform="translate(0.000000,497.000000) scale(0.100000,-0.100000)"
fill="#000000" stroke="none">
<path d="M3059 4935 c-54 -29 -152 -198 -171 -293 -9 -47 -20 -66 -62 -112
-57 -61 -133 -152 -159 -190 -73 -107 -140 -214 -214 -341 -65 -113 -90 -148
-102 -144 -9 3 -62 7 -118 10 -199 11 -421 -60 -550 -175 -16 -14 -42 -37 -59
-51 -27 -22 -108 -111 -132 -144 -13 -18 -138 -209 -165 -252 -15 -24 -27 -46
-27 -49 0 -13 -91 -145 -127 -185 -54 -59 -157 -123 -261 -159 -101 -36 -122
-55 -122 -109 0 -46 52 -94 122 -115 45 -13 162 -34 286 -52 29 -5 33 -8 27
-27 -46 -155 -80 -447 -70 -602 4 -63 7 -118 7 -122 -1 -11 -111 -53 -206 -78
-146 -38 -283 -82 -351 -115 -68 -32 -267 -163 -326 -214 -81 -71 -96 -81
-148 -102 -29 -12 -59 -28 -67 -35 -20 -21 -36 -135 -41 -296 -4 -130 -3 -147
16 -185 40 -83 139 -186 205 -213 34 -14 36 -14 36 3 0 10 -22 43 -49 73 -26
29 -55 68 -65 86 -17 35 -22 59 -5 31 18 -32 28 -19 23 29 -3 31 0 49 8 54 16
10 17 31 3 41 -6 5 -5 8 3 8 25 0 40 24 31 49 -5 13 -7 26 -5 29 3 2 1 13 -4
23 -15 27 4 32 63 15 161 -46 952 -78 1157 -47 36 5 157 24 269 40 402 61 591
132 790 300 56 47 304 297 358 361 49 58 128 171 160 230 16 30 49 90 73 132
l44 78 61 -59 c97 -93 197 -107 296 -40 60 41 97 98 133 205 15 43 29 85 32
93 6 20 36 -30 81 -134 19 -44 38 -89 43 -100 11 -26 44 -131 70 -226 60 -221
44 -502 -35 -615 -19 -27 -69 -101 -112 -164 -60 -88 -117 -154 -248 -285
-195 -195 -224 -220 -395 -333 -269 -178 -542 -289 -885 -360 -156 -32 -648
-15 -950 33 -114 18 -306 73 -411 118 -128 54 -335 184 -443 279 -70 61 -70
44 0 -28 111 -114 361 -264 553 -331 99 -35 260 -72 383 -88 429 -58 520 -64
713 -45 407 39 787 184 1140 434 282 200 481 384 568 527 12 20 30 43 39 50
15 13 16 11 9 -16 -7 -29 -29 -76 -112 -235 -34 -65 -39 -84 -39 -140 0 -59 3
-70 33 -107 46 -58 109 -87 203 -91 171 -9 280 50 507 270 243 236 381 485
483 867 43 159 50 208 59 436 7 174 11 210 33 275 104 310 60 560 -128 739
-39 36 -103 88 -142 114 -40 27 -78 56 -85 64 -9 12 -12 71 -10 247 2 159 -2
270 -12 355 l-15 123 56 106 c72 134 107 239 89 266 -28 43 -270 115 -391 116
-44 0 -55 5 -95 40 -188 170 -489 290 -724 290 -53 0 -85 5 -95 14 -35 30
-149 105 -196 128 -67 34 -104 41 -136 23z m100 -57 c45 -21 139 -94 193 -148
25 -24 37 -28 123 -34 245 -17 467 -97 619 -222 69 -57 76 -68 51 -78 -24 -9
-17 -35 11 -42 15 -4 49 -2 76 5 27 6 83 11 125 11 110 0 257 -44 268 -81 11
-34 -86 -214 -187 -346 -28 -36 -46 -69 -42 -73 5 -5 25 -10 44 -12 l35 -3 12
-110 c16 -151 16 -251 -1 -380 -9 -60 -22 -166 -31 -235 -18 -137 -40 -265
-50 -292 -10 -26 -137 -115 -219 -154 -100 -48 -185 -63 -387 -71 l-176 -6
-11 32 c-10 29 -36 50 -48 39 -3 -3 4 -39 16 -79 35 -127 25 -240 -36 -400
-18 -50 -37 -78 -73 -111 -64 -59 -96 -72 -150 -59 -50 11 -85 40 -114 96 -42
79 -34 351 14 530 10 38 19 85 19 105 l-1 35 -34 -38 -33 -38 -119 69 c-303
180 -538 348 -615 443 -65 79 -136 249 -122 292 4 12 51 113 106 224 l99 202
52 3 c39 2 53 7 55 20 2 12 -6 19 -32 24 -42 7 -44 15 -15 61 l22 35 28 -31
c17 -19 34 -29 43 -25 21 8 20 11 -9 63 -14 23 -25 48 -25 54 0 12 57 104 83
132 9 10 15 25 12 33 -2 7 -1 11 4 7 5 -3 21 10 36 27 106 128 190 195 343
272 93 47 93 47 87 79 -9 45 -47 119 -67 131 -35 21 -35 2 -1 -116 3 -11 -1
-20 -13 -23 -11 -4 -47 -19 -81 -36 -75 -35 -77 -31 -32 79 37 93 76 162 91
162 7 0 32 -10 57 -22z m-823 -1081 c8 -4 2 -27 -18 -68 -23 -48 -32 -59 -46
-54 -104 42 -284 21 -416 -48 -98 -51 -194 -144 -237 -228 -16 -32 -29 -62
-29 -66 0 -4 51 45 113 109 100 104 122 121 197 157 126 61 255 76 342 42 25
-10 27 -13 16 -36 -12 -27 -21 -30 -111 -40 -88 -10 -182 -45 -308 -115 -134
-75 -243 -176 -366 -340 -63 -84 -176 -326 -204 -434 -6 -26 -17 -50 -24 -53
-22 -8 -246 17 -304 33 -62 19 -101 55 -101 94 0 34 14 46 65 53 69 11 154 51
240 115 88 66 122 109 276 362 80 130 185 269 253 334 49 46 235 147 296 159
14 3 48 12 75 21 51 16 267 18 291 3z m-99 -327 c7 -19 17 -55 23 -79 15 -58
51 -113 135 -205 93 -103 205 -190 410 -320 183 -116 306 -205 328 -236 12
-17 11 -33 -5 -112 -12 -65 -17 -132 -17 -224 2 -130 1 -132 -28 -175 -16 -24
-42 -66 -58 -94 -77 -136 -151 -238 -240 -333 -218 -233 -408 -395 -544 -466
-132 -68 -333 -118 -642 -161 -57 -8 -133 -19 -169 -26 -133 -24 -894 -13
-1106 17 -56 8 -104 14 -108 14 -3 0 -6 9 -6 19 0 11 -4 22 -9 25 -5 3 -14 27
-21 53 -6 26 -16 51 -22 54 -18 11 0 28 64 60 33 17 71 41 83 54 13 12 38 33
55 45 18 13 43 33 56 45 53 50 180 130 256 161 44 19 143 52 222 73 78 21 169
51 203 65 35 14 66 26 71 26 4 0 20 -42 36 -92 37 -123 57 -181 68 -192 4 -6
8 -16 8 -23 0 -15 40 -105 51 -113 3 -3 13 -19 22 -36 50 -98 215 -145 311
-89 77 45 122 108 228 320 90 177 138 264 182 325 18 25 50 70 71 100 53 77
120 141 260 250 255 198 407 277 594 305 52 8 99 19 105 25 39 39 -133 36
-264 -5 -165 -52 -311 -139 -535 -321 -199 -160 -296 -288 -456 -599 -130
-253 -150 -279 -257 -334 -57 -29 -98 -21 -151 30 -49 47 -70 86 -128 239 -59
156 -70 203 -83 360 -15 189 5 402 56 585 89 323 174 496 337 687 57 68 224
202 300 242 116 61 281 115 297 97 3 -3 11 -22 17 -41z m2534 -457 c109 -114
189 -286 189 -407 0 -40 -28 -198 -48 -271 -18 -64 -27 5 -27 200 0 224 2 214
-82 332 -52 74 -104 112 -196 144 l-69 23 7 66 c4 36 9 68 11 72 9 13 151 -92
215 -159z m-140 -69 c49 -25 144 -121 167 -168 30 -60 56 -226 35 -226 -5 0
-21 28 -38 62 -47 96 -134 201 -227 272 -29 22 -38 35 -38 58 0 29 1 30 37 23
21 -4 50 -13 64 -21z m-56 -136 c61 -55 105 -117 153 -213 67 -133 90 -232
102 -433 22 -363 -63 -705 -270 -1088 -28 -52 -139 -203 -205 -278 -73 -83
-203 -191 -287 -236 -114 -60 -250 -75 -314 -34 -24 16 -54 81 -54 117 0 33
41 150 78 223 32 64 62 146 88 242 8 31 29 109 46 172 28 104 31 129 32 265 0
170 -9 218 -80 433 -50 156 -123 310 -170 362 -30 33 -32 40 -35 125 l-4 90
175 6 c191 6 248 15 339 54 105 44 298 174 322 218 15 26 35 21 84 -25z"/>
<path d="M4465 4289 c-72 -10 -177 -53 -198 -80 -17 -23 -16 -27 8 -99 15 -41
29 -82 31 -92 6 -16 33 -28 67 -28 24 0 22 29 -8 96 -14 31 -25 62 -25 69 0
13 151 95 175 95 7 0 18 6 24 14 19 22 -15 34 -74 25z"/>
<path d="M2812 4149 c-49 -50 -55 -120 -11 -134 30 -10 86 13 109 45 61 86
-24 164 -98 89z"/>
<path d="M3077 3963 c-4 -3 -7 -14 -7 -24 0 -31 -39 -49 -108 -49 -48 0 -64
-4 -69 -16 -10 -27 15 -39 78 -36 34 1 69 7 79 12 17 9 21 5 31 -32 10 -40 49
-103 73 -120 19 -13 46 -8 46 8 0 9 -13 33 -29 53 -60 77 -76 132 -43 157 16
13 16 15 -7 34 -25 21 -34 24 -44 13z"/>
<path d="M3434 3900 c-22 -9 -54 -75 -54 -111 0 -63 71 -114 116 -84 22 14 44
68 44 108 0 27 -27 75 -49 87 -23 12 -29 12 -57 0z"/>
<path d="M3620 3630 c-24 -15 3 -35 87 -63 57 -20 75 -23 88 -13 14 10 14 14
-7 32 -13 12 -50 28 -84 37 -70 20 -65 19 -84 7z"/>
<path d="M3580 3524 c0 -22 72 -122 94 -130 10 -3 23 -1 28 4 17 17 -77 142
-107 142 -8 0 -15 -7 -15 -16z"/>
<path d="M2765 2680 c-165 -25 -350 -99 -486 -193 -37 -25 -80 -52 -95 -60
-43 -23 -215 -196 -282 -285 -32 -42 -77 -108 -99 -145 -92 -153 -217 -483
-211 -559 5 -67 23 -55 46 33 28 103 59 181 138 344 106 222 198 342 384 503
83 72 120 99 215 159 136 86 309 149 460 168 71 9 117 25 112 38 -5 18 -50 17
-182 -3z"/>
<path d="M3782 2422 c70 -75 92 -106 140 -203 59 -120 107 -254 129 -354 20
-95 18 -361 -5 -480 -24 -129 -70 -335 -91 -405 -9 -30 -20 -69 -24 -86 -5
-18 -30 -80 -56 -138 -47 -106 -52 -144 -13 -96 40 50 113 212 153 340 24 77
76 313 96 433 7 41 10 141 7 250 l-4 182 -43 125 c-67 194 -130 309 -225 408
-70 73 -119 112 -142 112 -3 0 31 -40 78 -88z"/>
</g>
</svg>
